<svg fill="none" height="20" viewBox="0 0 20 20" width="20" xmlns="http://www.w3.org/2000/svg"><g fill="#4a5568"><path d="m11 3c-.5523 0-1 .44772-1 1s.4477 1 1 1h2.5858l-6.29291 6.2929c-.39052.3905-.39052 1.0237 0 1.4142.39053.3905 1.02369.3905 1.41422 0l6.29289-6.29289v2.58579c0 .55228.4477 1 1 1s1-.44772 1-1v-5c0-.55228-.4477-1-1-1z"/><path d="m5 5c-1.10457 0-2 .89543-2 2v8c0 1.1046.89543 2 2 2h8c1.1046 0 2-.8954 2-2v-3c0-.5523-.4477-1-1-1s-1 .4477-1 1v3h-8v-8h3c.55228 0 1-.44772 1-1s-.44772-1-1-1z"/></g></svg>