<svg width="34" height="34" viewBox="0 0 34 34" fill="none" xmlns="http://www.w3.org/2000/svg">
<path d="M11.7125 20.7966C11.4519 20.7966 11.2762 20.8221 11.1855 20.8476V22.5165C11.2932 22.542 11.4278 22.549 11.6134 22.549C12.292 22.549 12.7099 22.2062 12.7099 21.6268C12.7099 21.1083 12.35 20.7966 11.7125 20.7966ZM16.6525 20.8136C16.3691 20.8136 16.185 20.8391 16.0759 20.8646V24.5621C16.185 24.5876 16.3606 24.5876 16.5193 24.5876C17.6767 24.5961 18.4304 23.9586 18.4304 22.61C18.4389 21.4341 17.7518 20.8136 16.6525 20.8136Z" fill="white"/>
<path d="M19.8327 2.83325H8.49935C7.7479 2.83325 7.02723 3.13176 6.49588 3.66312C5.96453 4.19447 5.66602 4.91514 5.66602 5.66659V28.3333C5.66602 29.0847 5.96453 29.8054 6.49588 30.3367C7.02723 30.8681 7.7479 31.1666 8.49935 31.1666H25.4993C26.2508 31.1666 26.9715 30.8681 27.5028 30.3367C28.0342 29.8054 28.3327 29.0847 28.3327 28.3333V11.3333L19.8327 2.83325ZM13.4548 22.9358C13.0171 23.3466 12.3711 23.5308 11.6188 23.5308C11.473 23.5323 11.3272 23.5238 11.1825 23.5053V25.5254H9.91602V19.9494C10.4876 19.8642 11.0651 19.8253 11.6429 19.8333C12.432 19.8333 12.993 19.9834 13.3713 20.2852C13.7311 20.5713 13.9748 21.0403 13.9748 21.5928C13.9733 22.1481 13.7892 22.617 13.4548 22.9358ZM18.8481 24.8553C18.2531 25.3498 17.3478 25.5849 16.2414 25.5849C15.5784 25.5849 15.1095 25.5424 14.7908 25.4999V19.9508C15.3625 19.8674 15.9399 19.8281 16.5177 19.8333C17.5901 19.8333 18.2871 20.0259 18.8311 20.4368C19.419 20.8731 19.7873 21.5687 19.7873 22.5674C19.7873 23.6483 19.3921 24.3949 18.8481 24.8553ZM24.0827 20.9241H21.9123V22.2147H23.941V23.2545H21.9123V25.5268H20.6288V19.8758H24.0827V20.9241ZM19.8327 12.7499H18.416V5.66659L25.4993 12.7499H19.8327Z" fill="#494DD4"/>
</svg>
